<svg xmlns="http://www.w3.org/2000/svg" viewBox="0 0 400 400" width="100%" height="100%">
  <defs>
    <linearGradient id="enterpriseGrad" x1="0%" y1="0%" x2="100%" y2="100%">
      <stop offset="0%" stop-color="#5B21B6" /> <stop offset="100%" stop-color="#0F172A" /> </linearGradient>
    
    <linearGradient id="aiAccentGrad" x1="0%" y1="100%" x2="100%" y2="0%">
      <stop offset="0%" stop-color="#8B5CF6" />
      <stop offset="100%" stop-color="#06B6D4" />
    </linearGradient>
  </defs>

  <rect width="400" height="400" fill="#F8FAFC" rx="40" />

  <path d="M120 70 H230 L300 140 V310 A20 20 0 0 1 280 330 H120 A20 20 0 0 1 100 310 V90 A20 20 0 0 1 120 70 Z"
        fill="none" stroke="url(#enterpriseGrad)" stroke-width="24" stroke-linejoin="round" />

  <path d="M230 70 V140 H300" 
        fill="none" stroke="url(#enterpriseGrad)" stroke-width="24" stroke-linejoin="round" />

  <line x1="150" y1="190" x2="250" y2="190" 
        stroke="url(#enterpriseGrad)" stroke-width="16" stroke-linecap="round" />
  
  <line x1="150" y1="250" x2="200" y2="250" 
        stroke="url(#aiAccentGrad)" stroke-width="16" stroke-linecap="round" />
        
  <circle cx="250" cy="250" r="14" fill="url(#aiAccentGrad)" />
  <line x1="200" y1="250" x2="250" y2="250" stroke="url(#aiAccentGrad)" stroke-width="8" />
  <line x1="250" y1="250" x2="250" y2="290" stroke="url(#aiAccentGrad)" stroke-width="8" />
  <circle cx="250" cy="290" r="6" fill="url(#enterpriseGrad)" />
</svg>
